<svg width="28" height="28" viewBox="0 0 28 28" fill="none" xmlns="http://www.w3.org/2000/svg">
<path d="M14.9035 4.63733H13.0369V15.0271L19.781 18.2324L20.5823 16.5465L14.9035 13.8475V4.63733Z" fill="#1D4292"/>
<path d="M14 0C6.26803 0 0 6.26803 0 14C0 21.732 6.26803 28 14 28C21.732 28 28 21.732 28 14C28 6.26803 21.732 0 14 0ZM14 26.1333C7.29896 26.1333 1.86667 20.701 1.86667 14C1.86667 7.29896 7.29896 1.86667 14 1.86667C20.701 1.86667 26.1333 7.29896 26.1333 14C26.1333 20.701 20.701 26.1333 14 26.1333Z" fill="#1D4292"/>
</svg>
