<svg width="17" height="17" viewBox="0 0 17 17" fill="none" xmlns="http://www.w3.org/2000/svg">
<path d="M14.4671 5.69256C14.6366 5.69256 14.7904 5.76651 14.9119 5.89146C15.0251 6.02491 15.0822 6.19066 15.0657 6.36576C15.0657 6.42356 14.6126 12.1525 14.3539 14.5639C14.1919 16.0438 13.2379 16.9422 11.8069 16.9669C10.7066 16.9915 9.63113 17 8.57217 17C7.4479 17 6.34843 16.9915 5.2812 16.9669C3.89818 16.9337 2.94338 16.0191 2.78962 14.5639C2.52343 12.144 2.07868 6.42356 2.07041 6.36576C2.06215 6.19066 2.11836 6.02491 2.23244 5.89146C2.34487 5.76651 2.50689 5.69256 2.67719 5.69256H14.4671ZM10.324 0C11.0754 0 11.7467 0.524445 11.9409 1.27244L12.0798 1.89293C12.1922 2.39868 12.6304 2.75652 13.1346 2.75652H15.613C15.9437 2.75652 16.2189 3.03107 16.2189 3.38042V3.70341C16.2189 4.04426 15.9437 4.32731 15.613 4.32731H1.52572C1.19423 4.32731 0.918945 4.04426 0.918945 3.70341V3.38042C0.918945 3.03107 1.19423 2.75652 1.52572 2.75652H4.00408C4.50752 2.75652 4.94565 2.39868 5.05891 1.89378L5.18869 1.31409C5.3904 0.524445 6.05422 0 6.81392 0H10.324Z" fill="#E94560"/>
</svg>
