<svg width="86" height="86" viewBox="0 0 86 86" fill="none" xmlns="http://www.w3.org/2000/svg">
<circle cx="43" cy="43" r="43" fill="#0051FF" fill-opacity="0.2"/>
<path d="M22.1613 22.1602C21.9531 22.3684 21.9451 22.8889 22.1453 23.057C22.2173 23.1291 22.6177 23.3533 23.0261 23.5535C24.948 24.5145 27.5185 25.5395 29.6486 26.1961C30.2972 26.3963 30.8418 26.5725 30.8578 26.5805C30.8658 26.5965 30.8898 27.4293 30.8978 28.4223L30.9138 30.24L27.0541 33.1709C24.932 34.7805 23.1382 36.1898 23.0742 36.302C22.874 36.6063 22.842 37.1428 23.0021 37.4631C23.2103 37.8635 24.0591 38.9605 24.2433 39.0566C24.4996 39.1928 24.8039 39.1447 25.0201 38.9285C25.3164 38.6322 25.2363 38.3199 24.6757 37.5752C24.4275 37.2469 24.2353 36.9586 24.2513 36.9426C24.2673 36.9266 26.0451 35.5812 28.1992 33.9396L32.115 30.9687H32.9238C33.3642 30.9687 33.8767 30.9287 34.0449 30.8807C34.4293 30.7766 34.7976 30.4242 34.8617 30.0959C34.8937 29.9598 34.9578 29.8477 35.0138 29.8477C35.0699 29.8477 35.5824 30.5924 36.1509 31.5053C36.9918 32.8746 37.2961 33.291 37.8566 33.8596C38.6494 34.6604 39.338 35.0928 40.4191 35.4691C41.1558 35.7254 41.2199 35.7334 42.4611 35.7334C43.7023 35.7334 43.7664 35.7254 44.5031 35.4691C45.5841 35.0928 46.2728 34.6604 47.0656 33.8596C47.6261 33.291 47.9304 32.8746 48.7713 31.5053C49.8443 29.7756 50.0365 29.5834 50.1406 30.0959C50.2047 30.4242 50.573 30.7766 50.9574 30.8807C51.1256 30.9287 51.614 30.9687 52.0384 30.9687H52.8152L53.9123 31.8096C55.1214 32.7305 55.3216 32.8025 55.674 32.4502C55.8101 32.3221 55.8742 32.1699 55.8742 31.9777C55.8742 31.6654 55.7461 31.5373 54.689 30.7686C54.0804 30.3281 54.0324 30.2721 54.0724 30.0559C54.0965 29.9277 54.1125 29.0949 54.1125 28.198V26.5725L54.8172 26.3643C56.0343 26.0039 57.3957 25.5314 58.757 24.9869C60.1824 24.4264 62.6168 23.2812 62.857 23.065C63.0572 22.8809 63.0492 22.3684 62.841 22.1602C62.7529 22.0721 62.5767 22 62.4566 22C62.3285 22 61.6959 22.2562 61.0472 22.5605C58.8931 23.5936 56.5789 24.4984 54.689 25.043L53.7841 25.3072L53.4798 25.1391C53.2076 24.9789 53.0474 24.9629 52.0705 24.9629C51.4218 24.9629 50.9093 25.0029 50.8052 25.051C50.4769 25.2191 50.1886 25.5555 50.1005 25.8598C50.0125 26.1961 50.0525 26.1801 48.9074 26.3562C44.8314 26.9809 40.8515 27.0129 36.6955 26.4363C35.9027 26.3242 35.19 26.2201 35.1179 26.1961C35.0379 26.1721 34.9418 26.0199 34.8937 25.8518C34.8136 25.5555 34.5254 25.2191 34.197 25.051C34.0929 25.0029 33.5804 24.9629 32.9318 24.9629C31.9468 24.9629 31.8027 24.9789 31.5224 25.1391L31.2101 25.3152L30.3052 25.043C28.2793 24.4344 26.0851 23.5775 23.955 22.5605C23.3064 22.2562 22.6738 22 22.5457 22C22.4255 22 22.2494 22.0721 22.1613 22.1602ZM33.6925 27.9658V29.6875H32.9318H32.1711V27.9658V26.2441H32.9318H33.6925V27.9658ZM52.8312 27.9658V29.6875H52.0705H51.3097V27.9658V26.2441H52.0705H52.8312V27.9658ZM37.5843 27.8457C41.1158 28.2621 45.5521 28.182 48.9634 27.6455C50.0925 27.4613 50.0285 27.4373 50.0285 28.0459V28.5664H49.7082C49.2597 28.5664 48.9634 28.7346 48.6992 29.159C48.483 29.4953 48.4429 29.5193 47.6742 29.7516C45.8884 30.2961 44.375 30.5123 42.4611 30.5123C40.5472 30.5123 39.0338 30.2961 37.248 29.7516C36.4793 29.5193 36.4392 29.4953 36.223 29.159C35.9668 28.7506 35.6625 28.5664 35.2541 28.5664H34.9738V28.0139V27.4693L35.5824 27.5734C35.9187 27.6295 36.8236 27.7576 37.5843 27.8457ZM38.6814 31.4492C39.9306 31.6975 40.9556 31.7936 42.4611 31.7936C44.0386 31.7936 45.0236 31.6975 46.417 31.4012C46.9214 31.2971 47.3459 31.225 47.3619 31.233C47.442 31.3211 46.6091 32.4822 46.1127 32.9707C45.1037 33.9717 43.8464 34.4922 42.4611 34.4922C40.4992 34.4922 38.8175 33.4592 37.7365 31.5773L37.5043 31.185L37.7285 31.241C37.8486 31.273 38.281 31.3611 38.6814 31.4492Z" fill="#0051FF"/>
<path d="M56.8831 33.0588C56.7229 33.1869 56.6749 33.291 56.6749 33.5232C56.6749 33.6834 56.7229 33.8756 56.779 33.9476C56.827 34.0117 57.7239 34.7084 58.7569 35.4931C59.7899 36.2779 60.6548 36.9265 60.6708 36.9425C60.6868 36.9586 59.5817 38.464 58.2124 40.2898L55.714 43.6131L53.9923 42.5C52.0944 41.2668 51.8782 41.1867 51.5579 41.5871C51.3977 41.7953 51.3897 41.8914 51.3897 44.1416V46.4798L51.5739 46.648C51.8061 46.8642 52.1905 46.8722 52.4388 46.672C52.6229 46.5199 52.631 46.4798 52.671 44.8703L52.711 43.2207L53.8241 43.9414C54.4327 44.3418 55.0333 44.7181 55.1614 44.7822C55.4577 44.9423 56.0743 44.9343 56.3546 44.7742C56.4747 44.6941 57.796 43.0205 59.2854 41.0345L62.0001 37.439V36.9826C62.0001 36.6863 61.952 36.4541 61.864 36.3179C61.7358 36.1257 57.9561 33.1869 57.5718 32.9787C57.3235 32.8506 57.1233 32.8746 56.8831 33.0588Z" fill="#0051FF"/>
<path d="M25.6125 40.1457C25.2922 40.5541 25.3483 40.6662 26.8938 42.7082C27.6866 43.7572 28.4393 44.6861 28.5514 44.7582C28.8157 44.9344 29.4483 44.9504 29.7606 44.7822C29.8887 44.7181 30.4893 44.3418 31.0979 43.9414L32.211 43.2207L32.251 50.5238C32.275 54.5437 32.3231 57.899 32.3551 57.9711C32.5233 58.3074 33.268 58.2914 33.4522 57.9551C33.5002 57.859 33.5323 54.856 33.5323 49.7631V41.7232L33.3481 41.5551C32.9957 41.2187 32.7715 41.2988 31.154 42.3478C30.3211 42.8844 29.5524 43.3888 29.4323 43.4769L29.2161 43.6291L27.9989 42.0035C26.4614 39.9455 26.4534 39.9375 26.077 39.9375C25.8448 39.9375 25.7407 39.9855 25.6125 40.1457Z" fill="#0051FF"/>
<path d="M51.4858 48.0815C51.3337 48.1535 51.1015 48.3938 50.9573 48.618C50.653 49.0825 50.3727 49.3627 49.8923 49.659C49.4919 49.8993 49.3077 50.2196 49.3077 50.644C49.3077 51.0764 49.5239 51.3727 50.0685 51.701C50.4288 51.9172 50.629 52.1174 50.8933 52.5098C51.3737 53.2545 51.7901 53.4467 52.3747 53.1985C52.631 53.0944 52.8151 52.9102 53.2315 52.3176C53.3436 52.1655 53.656 51.8932 53.9282 51.709C54.5128 51.3246 54.6249 51.1645 54.6249 50.66C54.6249 50.1875 54.4727 49.9553 53.9362 49.595C53.704 49.4428 53.3997 49.1705 53.2716 48.9864C52.5268 47.9614 52.1345 47.7612 51.4858 48.0815ZM52.8392 50.4198L53.1435 50.644L52.7991 50.9002C52.6069 51.0444 52.3507 51.3006 52.2226 51.4608L51.9983 51.7651L51.7501 51.4368C51.614 51.2606 51.3577 51.0043 51.1895 50.8682L50.8692 50.628L51.4298 50.0674L51.9903 49.5069L52.2626 49.8512C52.4147 50.0354 52.671 50.2916 52.8392 50.4198Z" fill="#0051FF"/>
<path d="M26.7097 49.5229C26.5175 49.619 26.2852 49.8432 26.069 50.1555C25.7087 50.676 25.4604 50.9082 24.9079 51.2526C24.4995 51.5088 24.3233 51.8211 24.3233 52.2856C24.3233 52.742 24.5556 53.1024 24.98 53.3186C25.4124 53.5348 25.8929 53.9832 26.0851 54.3596C26.3974 54.9682 26.9339 55.2324 27.5185 55.0723C27.8308 54.9922 27.9028 54.9281 28.4313 54.1914C28.5755 53.9912 28.8477 53.727 29.0399 53.5908C29.2321 53.4627 29.5284 53.2225 29.6966 53.0623C29.9929 52.7901 30.0089 52.742 30.0089 52.3096C30.0089 51.8051 29.9849 51.7731 28.9679 50.9082C28.7356 50.716 28.4233 50.3637 28.2712 50.1315C28.127 49.8992 27.9108 49.651 27.8067 49.5789C27.5104 49.3867 27.046 49.3627 26.7097 49.5229ZM28.2472 52.5178C28.087 52.6299 27.7827 52.9342 27.5585 53.1824L27.1501 53.6309L27.046 53.4227C26.9179 53.1904 26.037 52.3496 25.9169 52.3496C25.7567 52.3496 25.8608 52.2055 26.2132 51.9412C26.4134 51.7971 26.7017 51.5008 26.8618 51.3006L27.1421 50.9322L27.8308 51.6209L28.5274 52.3096L28.2472 52.5178Z" fill="#0051FF"/>
<path d="M57.804 53.1023C57.6999 53.1584 57.4837 53.3986 57.3235 53.6389C57.1554 53.8871 56.8351 54.2074 56.5628 54.3916C56.0263 54.776 55.8821 54.9842 55.8741 55.4166C55.8741 55.849 56.0503 56.1053 56.6188 56.4736C56.9392 56.6818 57.1794 56.9141 57.3155 57.1463C57.6038 57.6508 57.8841 57.835 58.3726 57.835C58.797 57.835 58.8931 57.7629 59.5017 56.9621C59.6298 56.7939 59.9101 56.5537 60.1263 56.4176C60.5747 56.1453 60.7589 55.857 60.7589 55.4326C60.7589 55.0322 60.5827 54.768 60.0942 54.4316C59.87 54.2795 59.5337 53.9432 59.3575 53.6789C59.1733 53.4227 58.9411 53.1664 58.829 53.1023C58.5808 52.9662 58.0522 52.9662 57.804 53.1023ZM58.7729 55.841L58.3485 56.2494L57.9161 55.825L57.4837 55.3926L57.9001 54.9682L58.3165 54.5518L58.7569 54.9922L59.1974 55.4326L58.7729 55.841Z" fill="#0051FF"/>
<path d="M51.5659 54.6158C51.3897 54.8 51.3897 54.824 51.3897 58.2594V61.7187H42.461H33.5323V60.8139C33.5323 60.0131 33.5163 59.885 33.3722 59.7328C33.1239 59.4686 32.6354 59.4926 32.4192 59.7648C32.2671 59.965 32.2511 60.0852 32.2511 61.2783C32.2511 62.4715 32.2671 62.5916 32.4192 62.7918L32.5794 63H42.461H52.3427L52.5028 62.7918C52.671 62.5836 52.671 62.5035 52.671 58.6998V54.824L52.4708 54.6318C52.2145 54.3676 51.8061 54.3596 51.5659 54.6158Z" fill="#0051FF"/>
</svg>
