<svg width="86" height="86" viewBox="0 0 86 86" fill="none" xmlns="http://www.w3.org/2000/svg">
<circle cx="43" cy="43" r="43" fill="#FF6200" fill-opacity="0.2"/>
<path d="M30.2435 24.1187C29.6646 24.2449 28.774 24.6086 28.1431 24.9797C27.6014 25.2988 26.31 26.5902 25.9908 27.132C25.3006 28.3047 25.0111 29.3586 25.0111 30.7093C25.0111 33.1511 26.1615 35.207 28.2396 36.4761L28.8631 36.862L28.2693 37.2109C27.1189 37.9085 26.2803 38.814 25.6791 40.0089C24.7736 41.8273 24.7736 44.1726 25.6791 45.9909C26.2803 47.1858 27.1189 48.0913 28.2693 48.7889L28.8631 49.1378L28.2174 49.5311C27.4826 49.9839 26.5326 50.8893 26.0873 51.5721C25.7459 52.0917 25.3674 52.9378 25.1893 53.576C25.0037 54.2514 24.9666 55.8916 25.1225 56.6709C25.3229 57.6729 25.9018 58.8901 26.5178 59.5951C26.8666 59.9885 27.2006 60.0405 27.4974 59.7362C27.7795 59.4615 27.7349 59.2018 27.3416 58.6971C26.9111 58.1405 26.4732 57.2127 26.31 56.5299C26.117 55.7209 26.1838 54.3702 26.451 53.576C26.9631 52.0694 28.0021 50.919 29.4791 50.2436C30.5998 49.7241 29.7908 49.7464 44.011 49.7686L56.8137 49.7909L57.2368 49.9987C57.8231 50.2882 58.2981 50.7706 58.5801 51.3717C58.7879 51.8022 58.8176 51.9506 58.8176 52.4628C58.8176 52.9378 58.7805 53.1307 58.6395 53.4202C58.402 53.8952 58.0309 54.2588 57.5262 54.4963L57.1106 54.6893H45.4583C34.5408 54.6893 33.7912 54.6819 33.5685 54.5631C33.242 54.3776 33.0267 54.051 32.9599 53.5983C32.856 52.9674 32.3439 52.7299 31.9506 53.1307C31.7131 53.3608 31.7056 53.8135 31.9134 54.3776C32.1287 54.9416 32.4998 55.3424 33.0861 55.6319L33.5834 55.8768L45.4212 55.9139C58.6246 55.9584 57.4743 55.9065 58.1125 56.478C58.7508 57.0494 58.9883 57.9326 58.7434 58.7787C58.4243 59.8994 57.5707 60.6416 56.4278 60.8123C55.7598 60.9088 32.1213 60.9088 31.2009 60.8123C30.8299 60.7752 30.2806 60.6565 29.9763 60.5451C29.1525 60.2557 28.9892 60.2408 28.7666 60.4709C28.5514 60.6862 28.5142 60.9904 28.6849 61.2354C28.826 61.4283 29.5681 61.7326 30.3029 61.8811C30.8076 61.985 32.3068 61.9998 43.8032 61.9998C57.8973 61.9998 57.0661 62.0221 57.9567 61.5768C58.4985 61.3022 59.2778 60.5229 59.5821 59.9514C60.1684 58.8233 60.1832 57.4577 59.6266 56.4334C59.5227 56.2405 59.2555 55.9065 59.0403 55.6913L58.6469 55.3053L59.0254 54.9194C60.5692 53.3682 60.302 50.7186 58.4614 49.3233L58.2461 49.1675L58.7137 48.737C59.5078 48.0022 59.9309 47.1561 60.02 46.1542C60.109 45.0854 59.7825 44.1651 59.07 43.423L58.6543 42.9851L59.0032 42.6585C59.7157 41.998 60.109 40.8995 60.02 39.8456C59.9309 38.8437 59.5078 37.9976 58.7137 37.2628L58.2461 36.8324L58.4614 36.6765C58.877 36.3574 59.3668 35.7785 59.5895 35.3331C60.3465 33.8117 60.1387 32.1937 59.0254 31.0804L58.6469 30.6945L59.0403 30.3086C59.916 29.4402 60.2278 28.2601 59.9309 26.9762C59.6117 25.6254 58.4836 24.4676 57.1403 24.1113C56.836 24.0297 56.2051 24 54.4981 24H52.2567L52.1083 24.193C51.9079 24.4453 51.9079 24.668 52.1083 24.9203L52.2567 25.1133H54.0899C55.0993 25.1133 56.1532 25.1504 56.4278 25.1875C57.5707 25.3582 58.4243 26.1004 58.7434 27.2211C58.9957 28.0894 58.7434 28.9652 58.0754 29.5515C57.4223 30.1304 58.4094 30.0859 45.4435 30.0859C34.1919 30.0859 33.8283 30.0785 33.5611 29.9449C33.2494 29.7816 32.9525 29.3215 32.9525 28.9875C32.9525 28.4383 32.292 28.1637 31.9134 28.5644C31.765 28.7277 31.7502 28.7945 31.7873 29.1953C31.8615 30.0043 32.3736 30.7465 33.0935 31.0804L33.4349 31.2363L45.2728 31.2734L57.1106 31.3105L57.5262 31.5035C58.0309 31.741 58.402 32.1046 58.6395 32.5796C58.7805 32.8691 58.8176 33.0621 58.8176 33.5371C58.8176 34.0492 58.7879 34.1976 58.5801 34.6281C58.2981 35.2292 57.8231 35.7117 57.2368 36.0011L56.8137 36.2089L44.011 36.2312C29.7908 36.2535 30.5998 36.2757 29.4791 35.7562C28.0021 35.0808 26.9631 33.9304 26.451 32.4238C26.2877 31.9414 26.2432 31.6519 26.2135 30.9172C26.1689 29.789 26.2877 29.225 26.7775 28.2304C27.067 27.6219 27.2154 27.4215 27.824 26.8129C28.44 26.2043 28.633 26.0558 29.2416 25.7664C30.5998 25.1059 29.6572 25.1578 40.597 25.1281C51.4551 25.1059 50.5423 25.1578 50.5423 24.5566C50.5423 23.948 51.4774 24 40.5154 24.0074C32.2029 24.0148 30.6888 24.0297 30.2435 24.1187ZM57.0883 37.6413C58.402 38.1757 59.1664 39.7343 58.7063 40.9515C58.4836 41.5378 57.9864 42.0351 57.4223 42.2503L56.9918 42.4062H45.4509C35.8767 42.4062 33.8728 42.3913 33.6724 42.3023C33.3459 42.1687 33.0416 41.7976 32.9896 41.4562C32.8709 40.7585 32.5888 40.5284 32.099 40.7362C31.8021 40.855 31.7279 41.0628 31.7873 41.5898C31.8763 42.3319 32.4256 43.0593 33.138 43.3858L33.5091 43.5565L45.347 43.5937L57.1848 43.6308L57.6079 43.8386C58.7582 44.4026 59.1664 45.746 58.5578 46.978C58.2758 47.5569 57.6746 48.121 57.0883 48.3585L56.6653 48.5292L44.1224 48.5514C35.1345 48.5663 31.4162 48.5514 30.9931 48.4921C29.1303 48.2249 27.5939 47.119 26.7404 45.4194C26.1912 44.3358 26.0353 42.844 26.3396 41.6491C26.8963 39.4894 28.7888 37.7972 30.9857 37.4855C31.1119 37.4706 36.938 37.4558 43.9368 37.4632L56.6653 37.4706L57.0883 37.6413Z" fill="#FF6200"/>
</svg>
