<svg width="17" height="17" viewBox="0 0 17 17" fill="none" xmlns="http://www.w3.org/2000/svg">
<path d="M12.4655 0.00878496C13.6882 -0.067636 14.894 0.356925 15.8026 1.18906C16.6347 2.09762 17.0593 3.30338 16.9914 4.5346V12.4654C17.0678 13.6966 16.6347 14.9024 15.8111 15.8109C14.9025 16.6431 13.6882 17.0676 12.4655 16.9912H4.53464C3.3034 17.0676 2.09764 16.6431 1.18907 15.8109C0.356928 14.9024 -0.0676365 13.6966 0.00878503 12.4654V4.5346C-0.0676365 3.30338 0.356928 2.09762 1.18907 1.18906C2.09764 0.356925 3.3034 -0.067636 4.53464 0.00878496H12.4655ZM12.2447 3.88927C11.7183 3.36282 10.8691 3.36282 10.3427 3.88927L9.77376 4.46667C9.68885 4.55159 9.68885 4.69594 9.77376 4.78085C9.77376 4.78085 9.79043 4.79741 9.8201 4.8269L10.029 5.03462C10.1498 5.15483 10.3006 5.30494 10.452 5.4559L10.9655 5.96913C11.0726 6.07675 11.1437 6.14888 11.1493 6.15642C11.2428 6.25832 11.3022 6.39418 11.3022 6.54702C11.3022 6.8527 11.0559 7.10744 10.7418 7.10744C10.5974 7.10744 10.4616 7.048 10.3682 6.9546L8.95011 5.54506C8.88218 5.47713 8.7633 5.47713 8.69537 5.54506L4.64503 9.59537C4.36481 9.87558 4.20348 10.2492 4.19499 10.6483L4.14404 12.6607C4.14404 12.7711 4.17801 12.873 4.25443 12.9494C4.33085 13.0258 4.43274 13.0683 4.54313 13.0683H6.53858C6.94616 13.0683 7.33676 12.9069 7.63396 12.6182L13.3486 6.88667C13.8666 6.36021 13.8666 5.51109 13.3486 4.99313L12.2447 3.88927Z" fill="#5E5E5E"/>
</svg>
