<svg width="86" height="86" viewBox="0 0 86 86" fill="none" xmlns="http://www.w3.org/2000/svg">
<circle cx="43" cy="43" r="42" fill="#30CD30" fill-opacity="0.2" stroke="#1D4292" stroke-width="2"/>
<path d="M48.0614 19.1235C45.7383 19.6843 44.0881 21.9833 44.2563 24.4186C44.3124 25.2357 44.6488 26.237 45.0654 26.8618C45.514 27.5427 46.3711 28.3038 47.052 28.6402C48.1174 29.1609 48.1895 29.1689 52.2509 29.1689C54.2616 29.1689 56.0881 29.201 56.3123 29.249C57.2256 29.4172 57.9706 29.962 58.4192 30.7871C58.6755 31.2677 58.6915 31.3318 58.6915 32.0928C58.6915 33.1502 58.5473 33.4386 57.2977 34.9286L56.3364 36.0821L55.8237 36.0661C55.1508 36.0421 54.8384 36.1782 54.2216 36.763L53.7249 37.2356L52.5473 37.3238C51.8985 37.3798 50.7289 37.524 49.9439 37.6602C48.6622 37.8765 48.502 37.9166 48.3417 38.1008C48.1094 38.3651 48.1094 38.6375 48.3417 38.9099C48.55 39.1502 48.8704 39.1742 49.6475 39.03C50.2162 38.9179 51.7863 38.7176 52.8598 38.6215C53.6288 38.5494 53.805 38.5574 54.0614 38.6615C54.4138 38.8137 54.6221 38.99 54.7663 39.2704C54.9105 39.5347 58.7316 52.6401 58.7316 52.8484C58.7316 52.9846 58.6435 53.0166 58.0747 53.1048C56.7129 53.297 55.5353 54.1622 54.9185 55.4038L54.6221 56.0046H41.6929H28.7637L28.5714 56.2049C28.259 56.5093 28.3551 57.022 28.7477 57.1982C28.8839 57.2623 32.6649 57.2863 42.2376 57.2863H55.5433L55.7756 57.5186C56.2162 57.9592 55.9839 58.6321 55.3591 58.7603C55.0547 58.8164 20.3605 58.8244 20.3605 58.7683C20.3605 58.6241 20.705 58.0874 20.9373 57.8791C21.5221 57.3264 21.498 57.3344 24.3498 57.2863L26.9453 57.2463L27.0975 57.054C27.3057 56.7977 27.2977 56.3971 27.0654 56.1809C26.8892 56.0126 26.8011 56.0046 24.9907 55.9886L23.1002 55.9646L23.6609 55.0433C24.9426 52.9365 26.1762 51.3825 28.1709 49.3878C30.1896 47.3691 31.8878 46.0233 34.283 44.5574C37.5754 42.5387 41.5006 40.9125 45.6502 39.8551C46.3391 39.6789 46.8838 39.4947 46.9719 39.4065C47.1321 39.2463 47.1642 38.8538 47.036 38.6215C46.8598 38.2931 46.5794 38.2931 45.1455 38.6615C39.7703 40.0394 34.9159 42.2743 30.9666 45.1982L30.2296 45.735L29.765 45.2623C29.1722 44.6615 28.7877 44.4693 28.1869 44.4693C27.6182 44.4693 27.2176 44.6295 26.8251 45.014C26.5367 45.3024 26.2884 45.8711 26.2884 46.2717C26.2884 46.7283 26.5447 47.281 26.9613 47.7296L27.3939 48.1942L26.9132 48.7149C24.7023 51.1421 23.2363 53.1048 21.9707 55.3317C21.5861 56.0126 21.5221 56.0767 21.1776 56.2049C20.3685 56.5093 19.6075 57.2222 19.263 57.9913C18.9747 58.6241 18.9106 59.6655 19.1349 59.8738C19.2871 60.0019 20.2403 60.0099 37.6395 59.9939L55.9839 59.9699L56.3764 59.7296C56.9532 59.3691 57.2416 58.8564 57.2736 58.1274C57.2977 57.6628 57.2736 57.4866 57.1294 57.1822C56.9452 56.7977 56.3204 56.1648 56.1121 56.1648C56.032 56.1648 56.04 56.0927 56.1682 55.8444C56.5767 55.0514 57.4258 54.4586 58.315 54.3624C58.5633 54.3384 58.8758 54.2903 58.9959 54.2663C59.2683 54.2182 59.7329 53.8257 59.9011 53.5133C60.1575 53.0166 60.0774 52.6802 58.1788 46.1916L56.3524 39.9432L56.8651 39.3905C57.4899 38.7096 57.6822 38.1809 57.546 37.5401C57.5059 37.3158 57.4419 37.0834 57.4178 37.0194C57.3858 36.9393 57.6982 36.4987 58.323 35.7457C59.7249 34.0554 60.0133 33.4466 60.0133 32.0848C60.0133 31.5801 59.9652 31.1876 59.8531 30.8431C59.4685 29.5855 58.4272 28.5361 57.1374 28.1115C56.6328 27.9433 56.4405 27.9353 52.5233 27.8872C48.51 27.8472 48.4299 27.8391 48.0053 27.6629C46.3231 26.95 45.3137 25.2437 45.5781 23.5454C45.8024 22.1035 46.8277 20.8939 48.2376 20.4133C48.7503 20.245 48.8544 20.245 54.2456 20.213C60.4058 20.181 60.0133 20.229 60.0133 19.5962C60.0133 18.9553 60.4298 18.9954 54.1174 19.0034C49.6395 19.0034 48.4299 19.0274 48.0614 19.1235ZM28.7957 46.1435C29.2604 46.5841 29.2523 46.5841 28.6756 47.0487L28.3632 47.297L28.0828 47.0247C27.8104 46.7603 27.5701 46.3998 27.5701 46.2476C27.5701 46.2076 27.6422 46.0794 27.7383 45.9593C28.0027 45.6228 28.3071 45.6789 28.7957 46.1435Z" fill="#30CD30"/>
<path d="M49.0786 41.8177C45.7382 42.6668 42.4939 43.9085 39.586 45.4545C37.9759 46.3117 37.3991 46.9605 37.1347 48.2503C36.8544 49.588 37.4552 51.062 38.6007 51.847C38.9772 52.1114 39.4418 52.2956 39.9865 52.3998C40.4191 52.4879 52.5633 51.7269 53.124 51.5827C53.6447 51.4465 54.2135 50.8938 54.3657 50.3731C54.4298 50.1488 54.4858 49.8764 54.4858 49.7643C54.4858 49.4599 52.8196 42.6588 52.6834 42.3865C52.5232 42.066 51.9465 41.6014 51.61 41.5053C51.1053 41.3691 50.6327 41.4252 49.0786 41.8177ZM51.3457 42.827C51.5619 42.9792 51.578 43.0594 52.4832 46.7923C53.0519 49.1394 53.1961 49.8284 53.132 49.9726C52.9638 50.333 52.7716 50.3811 50.7849 50.5093C49.7435 50.5814 48.8543 50.6374 48.8143 50.6374C48.7662 50.6374 48.7182 50.317 48.7021 49.9245C48.6781 49.1234 48.5579 48.8831 48.0693 48.5947C47.813 48.4425 47.6527 48.4345 44.7929 48.4345C41.9091 48.4345 41.7809 48.4425 41.5086 48.6027C41.3564 48.6908 41.1481 48.8831 41.052 49.0353C40.8837 49.2756 40.8677 49.3958 40.8677 50.2609V51.2222L40.4672 51.1742C39.2175 51.0219 38.3524 50.0927 38.3604 48.8991C38.3684 48.2823 38.6568 47.6334 39.0894 47.273C39.4899 46.9365 42.0773 45.6388 43.6394 44.9899C45.2976 44.293 47.6047 43.524 49.359 43.0754C50.9131 42.6748 51.0893 42.6508 51.3457 42.827ZM47.4365 50.1888V50.7095L47.0199 50.7496C46.4431 50.8137 42.8784 51.038 42.4779 51.038H42.1494V50.3571V49.6762H44.7929H47.4365V50.1888Z" fill="#30CD30"/>
</svg>
