<svg width="52" height="52" viewBox="0 0 52 52" fill="none" xmlns="http://www.w3.org/2000/svg">
<circle cx="26" cy="26" r="26" fill="#EEEEEE"/>
<path d="M33.7778 16H18.2222C16.9949 16 16 16.9949 16 18.2222V33.7778C16 35.0051 16.9949 36 18.2222 36H33.7778C35.0051 36 36 35.0051 36 33.7778V18.2222C36 16.9949 35.0051 16 33.7778 16Z" stroke="#3172FF" stroke-width="2" stroke-linecap="round" stroke-linejoin="round"/>
<path d="M22.1105 23.7778C23.031 23.7778 23.7772 23.0316 23.7772 22.1111C23.7772 21.1906 23.031 20.4445 22.1105 20.4445C21.19 20.4445 20.4438 21.1906 20.4438 22.1111C20.4438 23.0316 21.19 23.7778 22.1105 23.7778Z" stroke="#3172FF" stroke-width="2" stroke-linecap="round" stroke-linejoin="round"/>
<path d="M35.9997 29.3333L30.4441 23.7777L18.2219 35.9999" stroke="#3172FF" stroke-width="2" stroke-linecap="round" stroke-linejoin="round"/>
</svg>
