<svg width="34" height="34" viewBox="0 0 34 34" fill="none" xmlns="http://www.w3.org/2000/svg">
<circle cx="16.8618" cy="16.8618" r="16.3618" fill="url(#paint0_linear_1_307)" stroke="white"/>
<path d="M17.2353 21.7648V23.8618H15.2643V21.7648H17.2353ZM12.2763 13.2688C12.6603 12.4528 13.2273 11.8168 13.9773 11.3608C14.7333 10.8988 15.5943 10.6678 16.5603 10.6678C17.3643 10.6678 18.0663 10.8028 18.6663 11.0728C19.2663 11.3368 19.7283 11.7058 20.0523 12.1798C20.3823 12.6478 20.5473 13.1848 20.5473 13.7908C20.5473 14.4028 20.4273 14.9338 20.1873 15.3838C19.9473 15.8278 19.6473 16.2358 19.2873 16.6078C18.9333 16.9798 18.5763 17.3518 18.2163 17.7238C17.8623 18.0898 17.5623 18.4978 17.3163 18.9478C17.0763 19.3918 16.9563 19.9138 16.9563 20.5138H15.5343C15.5343 19.8298 15.6453 19.2388 15.8673 18.7408C16.0893 18.2368 16.3653 17.7868 16.6953 17.3908C17.0253 16.9888 17.3523 16.6108 17.6763 16.2568C18.0063 15.8968 18.2823 15.5278 18.5043 15.1498C18.7323 14.7658 18.8463 14.3368 18.8463 13.8628C18.8463 13.2688 18.6333 12.8008 18.2073 12.4588C17.7813 12.1108 17.2263 11.9368 16.5423 11.9368C16.1523 11.9368 15.7683 12.0148 15.3903 12.1708C15.0183 12.3268 14.6853 12.5398 14.3913 12.8098C14.1033 13.0738 13.8933 13.3738 13.7613 13.7098L12.2763 13.2688Z" fill="white"/>
<defs>
<linearGradient id="paint0_linear_1_307" x1="16.8618" y1="0" x2="16.8618" y2="33.7236" gradientUnits="userSpaceOnUse">
<stop stop-color="#1D4292"/>
<stop offset="1" stop-color="#3054A2"/>
</linearGradient>
</defs>
</svg>
