<svg width="86" height="86" viewBox="0 0 86 86" fill="none" xmlns="http://www.w3.org/2000/svg">
<circle cx="43" cy="43" r="43" fill="#7700FF" fill-opacity="0.13"/>
<path d="M44.8254 22.1221C44.465 22.2823 44.1286 22.5946 43.9364 22.9711C43.8083 23.2274 43.7843 23.4436 43.7843 24.4367V25.598H44.3769H44.9696L44.9936 24.5969C45.0256 23.6839 45.0417 23.5878 45.2098 23.4196L45.3941 23.2354H53.395H61.3959L61.5801 23.4196L61.7643 23.6038V31.6047V39.6057L61.5801 39.7899L61.3959 39.9741H53.395H45.3941L45.2098 39.7899L45.0256 39.6057L45.0016 33.2065L44.9856 26.7993H44.3849H43.7843V33.3667C43.7843 39.6777 43.7923 39.95 43.9364 40.2384C44.1366 40.6228 44.465 40.9351 44.8414 41.0873C45.1057 41.1994 46.1149 41.2155 53.411 41.2155C61.2918 41.2155 61.7003 41.2074 62.0046 41.0633C62.1808 40.9832 62.4211 40.815 62.5412 40.6869C63.0298 40.1663 63.0057 40.6388 63.0057 31.6047C63.0057 22.5706 63.0298 23.0431 62.5412 22.5226C62.4211 22.3944 62.1808 22.2262 62.0046 22.1461C61.7003 22.002 61.2998 21.994 53.395 22.002C46.1629 22.002 45.0737 22.018 44.8254 22.1221Z" fill="#7700FF"/>
<path d="M59.4015 24.9975V25.5981H60.0022H60.6028V24.9975V24.3968H60.0022H59.4015V24.9975Z" fill="#7700FF"/>
<path d="M59.4015 27.4002V28.0009H60.0022H60.6028V27.4002V26.7995H60.0022H59.4015V27.4002Z" fill="#7700FF"/>
<path d="M30.9692 27.6242C30.5768 27.7524 29.9841 28.369 29.864 28.7695C29.7999 29.0018 29.7679 29.9308 29.7679 31.917V34.7282H28.7588C28.2061 34.7282 27.7657 34.7602 27.7817 34.8002C27.8377 34.9444 31.5699 40.7349 31.61 40.7349C31.65 40.7349 35.3822 34.9444 35.4382 34.8002C35.4542 34.7602 35.0138 34.7282 34.4611 34.7282H33.452V32.9662V31.2042H37.3764H41.3008V29.3622V27.5201L36.2792 27.5281C32.8353 27.5361 31.1614 27.5682 30.9692 27.6242ZM40.0193 29.3622V29.9228H36.095H32.1706V32.9662V36.0096H32.6511H33.1236L32.3868 37.1709C31.9784 37.8036 31.634 38.3242 31.61 38.3242C31.5859 38.3242 31.2415 37.8036 30.8331 37.1709L30.0963 36.0096H30.5688H31.0493V32.6058V29.194L31.2495 29.0018L31.4418 28.8015H35.7346H40.0193V29.3622Z" fill="#7700FF"/>
<path d="M23.0412 43.9066C22.6808 44.0668 22.3444 44.3791 22.1522 44.7556C22.008 45.0439 22 45.3402 22 53.3892C22 61.4382 22.008 61.7345 22.1522 62.0228C22.2403 62.183 22.4085 62.4153 22.5366 62.5354C23.0332 63.016 22.865 62.9999 28.6875 62.9999H34.0134V62.3993V61.8066L28.8076 61.7826L23.6098 61.7586L23.4256 61.5743L23.2414 61.3901V53.3892V45.3883L23.4256 45.2041L23.6098 45.0198H31.6107H39.6117L39.7959 45.2041L39.9801 45.3883V53.3892V61.3901L39.7959 61.5743C39.6277 61.7425 39.5316 61.7586 38.6186 61.7906L37.6175 61.8146V62.4073V62.9999H38.7627C40.0201 62.9999 40.3405 62.9118 40.757 62.4713C41.2455 61.9508 41.2215 62.4233 41.2215 53.3892C41.2215 44.3551 41.2455 44.8276 40.757 44.3071C40.6368 44.1789 40.3966 44.0107 40.2204 43.9306C39.916 43.7865 39.5156 43.7785 31.6107 43.7865C24.3787 43.7865 23.2894 43.8025 23.0412 43.9066Z" fill="#7700FF"/>
<path d="M51.4729 47.1984C50.4397 48.8082 49.5827 50.1617 49.5667 50.1937C49.5507 50.2338 49.9912 50.2658 50.5438 50.2658H51.5529V52.0278V53.7898H47.6286H43.7042V55.6318V57.4739H48.6777C52.3699 57.4739 53.7394 57.4499 53.9877 57.3778C54.4201 57.2496 55.0128 56.657 55.141 56.2245C55.205 55.9922 55.2371 55.0632 55.2371 53.077V50.2658H56.2462C56.7988 50.2658 57.2393 50.2338 57.2233 50.1937C57.1672 50.0496 53.435 44.2591 53.395 44.2591C53.371 44.2591 52.506 45.5806 51.4729 47.1984ZM54.1719 47.8231L54.9087 48.9844H54.4362H53.9556V52.3882V55.8L53.7554 55.9922L53.5632 56.1924H49.2704H44.9856V55.6318V55.0712H48.91H52.8344V52.0278V48.9844H52.3538H51.8813L52.6181 47.8231C53.0266 47.1904 53.371 46.6698 53.395 46.6698C53.419 46.6698 53.7634 47.1904 54.1719 47.8231Z" fill="#7700FF"/>
<path d="M24.4023 47.3826V48.0233H31.6104H38.8185V47.3826V46.7419H31.6104H24.4023V47.3826Z" fill="#7700FF"/>
<path d="M24.4023 49.7853V50.426H31.6104H38.8185V49.7853V49.1446H31.6104H24.4023V49.7853Z" fill="#7700FF"/>
<path d="M24.4023 52.188V52.8287H31.6104H38.8185V52.188V51.5473H31.6104H24.4023V52.188Z" fill="#7700FF"/>
<path d="M24.4023 54.5906V55.2313H31.6104H38.8185V54.5906V53.9499H31.6104H24.4023V54.5906Z" fill="#7700FF"/>
<path d="M24.4023 56.9933V57.634H31.6104H38.8185V56.9933V56.3526H31.6104H24.4023V56.9933Z" fill="#7700FF"/>
<path d="M24.4023 59.3959V60.0366H31.6104H38.8185V59.3959V58.7552H31.6104H24.4023V59.3959Z" fill="#7700FF"/>
<path d="M35.2149 62.3992V62.9999H35.8156H36.4162V62.3992V61.7985H35.8156H35.2149V62.3992Z" fill="#7700FF"/>
</svg>
