<svg width="86" height="86" viewBox="0 0 86 86" fill="none" xmlns="http://www.w3.org/2000/svg">
<circle cx="43" cy="43" r="43" fill="#0089FF" fill-opacity="0.2"/>
<path d="M33.1379 24.2244C31.3014 24.8866 29.7121 25.4958 29.6062 25.5664C29.3148 25.7607 20.9182 33.2479 20.4238 33.7599C20.0441 34.1484 20 34.2279 20 34.5987V35.0137L23.7966 38.8456L27.5931 42.6686V52.9017C27.5931 59.9739 27.6196 63.223 27.6902 63.4084C27.7432 63.5585 27.8933 63.7528 28.0169 63.8411C28.2465 63.9912 28.8822 64 42.6028 64C56.3234 64 56.9591 63.9912 57.1886 63.8411C57.3122 63.7528 57.4623 63.5585 57.5153 63.4084C57.586 63.223 57.6124 59.9739 57.6124 52.9017V42.6686L61.409 38.8456C65.1967 35.0225 65.2056 35.0137 65.2056 34.6429C65.2056 34.4486 65.1614 34.2014 65.1084 34.1043C64.9937 33.8836 55.5906 25.5223 55.361 25.4252C55.2639 25.3899 53.7011 24.8248 51.8823 24.1714C48.2623 22.8735 48.0063 22.8206 47.6001 23.2179C47.4765 23.3503 47.3706 23.5004 47.3706 23.5534C47.3529 23.9507 47.088 25.0808 46.885 25.5929C46.3375 26.9615 45.3045 27.9503 44.0331 28.3212C42.8677 28.6567 41.4726 28.5507 40.422 28.0474C39.0534 27.3941 38.0646 25.8137 37.7909 23.8536C37.7555 23.5887 37.6584 23.368 37.5083 23.2179C37.1022 22.8117 36.802 22.8824 33.1379 24.2244ZM36.5195 26.3876C36.9697 27.4912 37.8968 28.6125 38.9298 29.2924C41.9936 31.3231 46.1433 30.4402 48.1299 27.3411C48.4654 26.8114 48.8185 26.0079 48.9157 25.5488C48.951 25.381 48.9951 25.2133 49.0128 25.1868C49.0304 25.1515 50.2842 25.5753 51.794 26.1227C54.0808 26.9526 54.5929 27.1734 54.8666 27.4206C55.0431 27.5883 56.9061 29.2659 59.0075 31.1465C61.1 33.0271 62.8217 34.5987 62.8128 34.6252C62.8128 34.6605 61.6209 35.8966 60.1729 37.3799L57.5242 40.0728V37.8832C57.5242 35.4198 57.5065 35.3404 56.9061 35.1638C56.4382 35.0225 55.9349 35.2609 55.7848 35.7024C55.7053 35.9319 55.6788 39.1899 55.6788 49.0521L55.67 62.1017H42.5586H29.4473L29.4296 48.8579L29.4031 35.6141L29.1559 35.3757C28.9616 35.1814 28.8292 35.1285 28.5114 35.1285C28.167 35.1285 28.0699 35.1726 27.8492 35.4198L27.5931 35.7024V37.8744V40.0375L24.962 37.3799C23.5229 35.9143 22.3309 34.687 22.3133 34.6517C22.3044 34.6164 24.1674 32.9035 26.4718 30.8463L30.648 27.1115L33.3763 26.1227L36.1133 25.1338L36.2104 25.4958C36.2634 25.69 36.4047 26.0962 36.5195 26.3876Z" fill="#008CFF"/>
</svg>
