<svg width="86" height="86" viewBox="0 0 86 86" fill="none" xmlns="http://www.w3.org/2000/svg">
<circle cx="43" cy="43" r="43" fill="#FF6200" fill-opacity="0.2"/>
<path d="M24.8021 24.1476C23.5299 24.5583 22.5475 25.5406 22.161 26.7967C22 27.304 22 27.5778 22 42.9973C22 58.3605 22 58.6906 22.161 59.1899C22.5475 60.454 23.546 61.4525 24.8021 61.839C25.3094 62 25.5831 62 42.5648 62C55.9955 61.9919 59.8282 61.9758 59.9249 61.8953C59.9893 61.839 60.0859 61.7423 60.1423 61.6779C60.263 61.5249 63.2262 45.7108 63.2262 45.2358C63.2262 44.8412 62.9121 44.4467 62.6142 44.4467C62.4773 44.4467 62.3727 44.342 62.2116 44.0602C61.0843 42.0552 59.8927 40.8635 58.1937 40.0181C57.2274 39.535 56.3739 39.3014 55.3191 39.237L54.53 39.1887V33.2544C54.53 27.5778 54.522 27.2879 54.369 26.8048C53.9825 25.5406 52.984 24.5422 51.7279 24.1557C51.2207 23.9946 50.9549 23.9946 38.2328 24.0027C25.9052 24.0027 25.2369 24.0107 24.8021 24.1476ZM51.3334 25.7983C51.7843 25.9674 52.4204 26.5632 52.6217 26.998C52.8472 27.4731 52.9196 28.1092 52.9196 29.6471V31.0804H38.257H23.5943L23.6265 29.325C23.6748 27.3442 23.7392 27.0624 24.2465 26.4746C24.6008 26.072 25.1403 25.7822 25.6878 25.6855C25.8972 25.6533 31.6624 25.6292 38.5066 25.6372C50.4235 25.6453 50.963 25.6533 51.3334 25.7983ZM52.9035 36.0726L52.8794 39.4625L52.2272 39.7282C51.8648 39.8731 51.3414 40.1228 51.0677 40.2838L50.5765 40.5817H49.5378C48.5152 40.5817 47.7503 40.6864 47.0417 40.936C46.6954 41.0568 46.6954 41.0487 46.5264 40.8394C46.1399 40.3241 45.1817 39.3981 44.5617 38.9311C43.2895 37.9729 41.6549 37.2723 40.0365 36.9905C38.9736 36.8053 36.8237 36.8697 35.8494 37.1113C34.1666 37.53 33.5949 37.8843 33.5949 38.4963C33.5949 38.7539 33.6512 38.8747 33.8364 39.0679C34.0538 39.2853 34.1182 39.3014 34.4645 39.2773C34.6738 39.2531 35.1006 39.1485 35.4066 39.0277C36.3003 38.7056 37.1458 38.5607 38.2167 38.5607C40.6484 38.5607 42.75 39.4222 44.465 41.1212L45.1495 41.8056L44.8676 42.015C44.7147 42.1357 44.4006 42.4015 44.1832 42.6108L43.7726 42.9893L43.1284 42.3693C42.3474 41.6204 41.4697 41.0809 40.4391 40.7267C39.6902 40.469 39.65 40.4609 38.265 40.4609C36.8801 40.4609 36.8398 40.469 36.091 40.7267C34.9959 41.1051 34.1666 41.6204 33.3533 42.4337C32.5481 43.2469 32.0247 44.0763 31.6463 45.1713C31.3886 45.9202 31.3806 45.9604 31.3806 47.3454C31.3806 48.7303 31.3886 48.7706 31.6463 49.5194C32.0247 50.6064 32.5401 51.4438 33.3533 52.2571C34.1746 53.0703 35.004 53.5857 36.091 53.9641C36.8398 54.2218 36.8801 54.2298 38.265 54.2298C39.65 54.2298 39.6902 54.2218 40.4391 53.9641C41.3087 53.6581 41.8562 53.3683 42.5809 52.8127L43.0882 52.4181L43.1445 52.7241C43.1687 52.8852 43.2411 53.2716 43.3056 53.5696C43.4908 54.4633 43.4908 54.4553 42.8305 54.8659C42.5084 55.0672 41.977 55.341 41.6468 55.4779C37.3793 57.2332 32.4595 55.3893 30.3902 51.2506C29.6896 49.8496 29.44 48.6337 29.5125 46.9186C29.5608 45.7591 29.6816 45.1391 30.0439 44.2051C30.1325 43.9635 30.213 43.6254 30.213 43.4563C30.213 42.7558 29.3676 42.4095 28.8522 42.8926C28.5946 43.1422 28.2967 43.875 28.0309 44.9298C27.7894 45.9041 27.725 48.054 27.9102 49.1168C28.2725 51.1781 29.2065 53.0462 30.6317 54.56C32.1858 56.1945 34.239 57.3057 36.4453 57.6922C37.3712 57.8532 39.1588 57.8532 40.0848 57.6922C41.0349 57.5231 42.3393 57.0802 43.1526 56.6454L43.8128 56.2992L43.8531 56.5085C43.99 57.1849 44.5456 60.2286 44.5456 60.301C44.5456 60.3735 42.0333 60.3896 35.0684 60.3735C27.1372 60.3493 25.5348 60.3332 25.3013 60.2366C24.8343 60.0434 24.3512 59.681 24.1096 59.3187C23.6184 58.6021 23.6507 59.5602 23.6265 45.5498L23.6104 32.6908H38.265H52.9196L52.9035 36.0726ZM55.8103 40.9924C56.8973 41.1615 58.0729 41.7654 58.9989 42.6108C59.4337 43.0054 60.408 44.2212 60.408 44.3742C60.408 44.4145 59.5867 44.4467 58.3789 44.4467L56.3417 44.4386L56.0599 43.9877C55.4963 43.0859 54.2643 41.9908 53.2417 41.4674C52.9035 41.2983 52.8955 41.2822 53.0646 41.2178C53.8134 40.936 54.9326 40.8474 55.8103 40.9924ZM39.819 42.3209C40.7933 42.635 41.7354 43.2711 42.3071 43.9958C42.6292 44.3984 42.6292 44.4064 42.444 44.4306C42.3393 44.4467 42.1541 44.5513 42.0333 44.6721C41.7435 44.9378 41.7435 45.2599 42.0011 46.6207C42.1058 47.1763 42.1783 47.6433 42.1541 47.6675C42.138 47.6916 41.7515 47.7077 41.3006 47.7077C40.5518 47.7077 40.431 47.6836 39.9559 47.4581C39.6661 47.3212 39.1346 46.9508 38.7642 46.6449C37.951 45.9524 37.3471 45.6223 36.5258 45.4129C35.7447 45.2116 34.6497 45.2036 33.9008 45.4049C33.5949 45.4773 33.3533 45.5176 33.3533 45.4773C33.3533 45.3324 33.7559 44.6319 34.1021 44.1568C34.9234 43.0376 36.3325 42.2485 37.7255 42.1196C38.4341 42.0552 39.2635 42.1357 39.819 42.3209ZM50.7053 42.3612C51.3656 42.482 52.3077 42.8524 52.8472 43.2147C53.4511 43.6254 54.0389 44.1165 54.1355 44.3017C54.2079 44.4386 54.0469 44.4467 49.4814 44.4467H44.7549L45.0689 44.1165C45.4635 43.7139 46.2204 43.1664 46.7679 42.8926C47.9757 42.2887 49.2721 42.1116 50.7053 42.3612ZM61.3742 46.1456C61.3742 46.2342 58.8298 59.8904 58.7573 60.2125L58.7171 60.3896H52.517H46.317L46.2767 60.2044C46.2043 59.8904 43.6598 46.2342 43.6598 46.1456C43.6598 46.0812 46.3251 46.0571 52.517 46.0571C58.709 46.0571 61.3742 46.0812 61.3742 46.1456ZM36.5741 47.2327C36.864 47.3695 37.4035 47.7399 37.7819 48.062C39.03 49.1168 40.0928 49.4953 41.6468 49.4228L42.5165 49.3825L42.597 49.7932C42.6775 50.1958 42.6775 50.2119 42.3635 50.6306C41.7596 51.4277 40.584 52.1846 39.5131 52.4584C38.8931 52.6194 37.637 52.6194 37.017 52.4584C35.1408 51.9753 33.6432 50.4776 33.152 48.5934C32.9507 47.8124 32.9749 47.7077 33.4097 47.4501C34.1021 47.0475 34.5289 46.9347 35.326 46.9669C35.938 46.983 36.1312 47.0314 36.5741 47.2327Z" fill="#FF6200"/>
<path d="M26.557 27.7469C26.3879 27.916 26.3477 28.0368 26.3477 28.3428C26.3477 28.8742 26.6214 29.1479 27.1529 29.1479C27.6843 29.1479 27.9581 28.8742 27.9581 28.3428C27.9581 27.8113 27.6843 27.5376 27.1529 27.5376C26.8469 27.5376 26.7261 27.5778 26.557 27.7469Z" fill="#FF6200"/>
<path d="M31.3969 27.6261C30.9862 27.8677 30.9299 28.5843 31.3003 28.9547C31.5982 29.2445 32.1618 29.2284 32.4758 28.9144C32.9992 28.391 32.6369 27.5375 31.8881 27.5375C31.6948 27.5375 31.4774 27.5778 31.3969 27.6261Z" fill="#FF6200"/>
<path d="M36.035 27.7308C35.8418 27.8999 35.8096 27.9885 35.8096 28.3428C35.8096 28.8822 36.0753 29.1479 36.6148 29.1479C37.1543 29.1479 37.42 28.8822 37.42 28.3428C37.42 27.8033 37.1543 27.5376 36.6148 27.5376C36.3571 27.5376 36.1961 27.5939 36.035 27.7308Z" fill="#FF6200"/>
<path d="M40.7529 27.771C40.5677 27.9562 40.5194 28.077 40.5194 28.3427C40.5194 29.2928 41.9446 29.478 42.1781 28.552C42.2023 28.4393 42.2023 28.2461 42.1781 28.1333C42.0251 27.5214 41.2119 27.312 40.7529 27.771Z" fill="#FF6200"/>
<path d="M45.4796 27.7468C45.3106 27.9159 45.2703 28.0367 45.2703 28.3427C45.2703 28.6487 45.3106 28.7694 45.4796 28.9385L45.697 29.1479H47.7262H49.7553L49.9727 28.9385C50.1417 28.7694 50.182 28.6487 50.182 28.3427C50.182 28.0367 50.1417 27.9159 49.9727 27.7468L49.7553 27.5375H47.7262H45.697L45.4796 27.7468Z" fill="#FF6200"/>
<path d="M30.8487 39.9296C30.3817 40.4046 30.6152 41.2098 31.2674 41.3387C31.8391 41.4514 32.3866 40.9038 32.2658 40.3402C32.1289 39.696 31.3157 39.4625 30.8487 39.9296Z" fill="#FF6200"/>
</svg>
